<?xml version="1.0" standalone="no"?><!DOCTYPE svg PUBLIC "-//W3C//DTD SVG 1.1//EN" "http://www.w3.org/Graphics/SVG/1.1/DTD/svg11.dtd">
<svg t="1711532051115" class="icon" viewBox="0 0 1024 1024" version="1.1" xmlns="http://www.w3.org/2000/svg"
     p-id="25578"
     width="256" height="256"><path d="M564.64 529.6m-17.6 0a17.6 17.6 0 1 0 35.2 0 17.6 17.6 0 1 0-35.2 0Z" fill="#8DC81B" p-id="25579"></path><path d="M328.48 570.88c2.08 1.28 12 5.92 11.36 12.48a86.56 86.56 0 0 1-5.76 24 170.24 170.24 0 0 1 20.32-19.84 16 16 0 0 1 13.12 0 194.72 194.72 0 0 0 65.6 11.2 189.28 189.28 0 0 0 27.2-1.92 119.36 119.36 0 0 1-0.96-15.2c0-69.44 60.32-127.04 139.36-137.92-8.96-70.08-80-124.64-165.6-124.64-92.16 0-166.72 62.56-166.72 139.84a137.76 137.76 0 0 0 62.08 112z m174.72-199.2a26.4 26.4 0 1 1-26.24 26.24 26.24 26.24 0 0 1 26.24-26.24z m-140.32 0a26.4 26.4 0 0 1 0 52.64 26.4 26.4 0 1 1 0-52.64zM669.92 547.04a17.6 17.6 0 1 0-17.6-17.44 17.44 17.44 0 0 0 17.6 17.44z" fill="#8DC81B" p-id="25580"></path><path d="M512 950.72A438.72 438.72 0 1 0 73.28 512 438.72 438.72 0 0 0 512 950.72z m-78.88-666.88c104.96 0 192 69.44 200.8 158.08 88.48 3.52 158.88 64 158.88 139.68a134.24 134.24 0 0 1-68.96 113.12c-7.84 4.8 17.12 45.12 8.16 48-2.72 1.12-13.92-6.88-25.12-15.04s-22.08-16-24.8-15.04a199.84 199.84 0 0 1-56 8c-71.84 0-133.12-38.08-156.48-91.52a232.8 232.8 0 0 1-107.36-8.16c-5.44-1.76-17.92 7.68-30.56 16.96A77.28 77.28 0 0 1 302.72 656h-2.08c-5.92-3.2 18.08-53.28 12.64-56.8a167.68 167.68 0 0 1-82.08-140.32c0-96.96 90.4-175.04 201.92-175.04z" fill="#8DC81B" p-id="25581"></path></svg>